<svg width="97" height="39" viewBox="0 0 97 39" fill="none" xmlns="http://www.w3.org/2000/svg">
<path d="M33.9119 38.4974C34.7389 38.5461 35.4488 37.9151 35.4974 37.0881L36.2902 23.6114C36.3388 22.7844 35.7078 22.0745 34.8808 22.0259C34.0538 21.9772 33.344 22.6082 33.2953 23.4352L32.5907 35.4145L20.6114 34.7098C19.7844 34.6612 19.0745 35.2922 19.0259 36.1192C18.9772 36.9462 19.6082 37.656 20.4352 37.7047L33.9119 38.4974ZM0.878886 1.99655L32.8789 37.9965L35.1211 36.0035L3.12111 0.00345421L0.878886 1.99655Z" fill="black"/>
<path d="M66.5151 37.2121C66.6322 38.0322 67.392 38.6021 68.2121 38.4849L81.5764 36.5757C82.3965 36.4586 82.9664 35.6988 82.8492 34.8787C82.7321 34.0586 81.9723 33.4887 81.1522 33.6059L69.2728 35.3029L67.5757 23.4235C67.4586 22.6034 66.6988 22.0336 65.8787 22.1508C65.0586 22.2679 64.4887 23.0277 64.6059 23.8478L66.5151 37.2121ZM93.8 0.0999999L66.8 36.1L69.2 37.9L96.2 1.9L93.8 0.0999999Z" fill="black"/>
</svg>
